<svg id="Group_518" data-name="Group 518" xmlns="http://www.w3.org/2000/svg" width="18.608" height="18.749" viewBox="0 0 18.608 18.749">
  <path id="Path_115" data-name="Path 115" d="M-116.616,95.862c.4-1.463.78-2.776,1.089-4.108a2.024,2.024,0,0,0-.085-1.22,9.294,9.294,0,0,1,6.355-13.176A9.273,9.273,0,0,1-98.02,85.851a9.354,9.354,0,0,1-7.558,9.692,9.276,9.276,0,0,1-5.732-.726,1.571,1.571,0,0,0-.942-.078C-113.659,95.074-115.055,95.455-116.616,95.862Zm2.208-2.185c.861-.228,1.61-.465,2.377-.611a1.661,1.661,0,0,1,1.016.128,7.692,7.692,0,0,0,9.668-1.8,7.819,7.819,0,0,0,.723-9.065A7.716,7.716,0,0,0-109,78.828a7.766,7.766,0,0,0-4.911,11.527,1.565,1.565,0,0,1,.118.993C-113.943,92.1-114.179,92.826-114.408,93.678Z" transform="translate(116.616 -77.113)"/>
  <path id="Path_116" data-name="Path 116" d="M-104.812,89.809a7.932,7.932,0,0,1-4.455-1.607,8.354,8.354,0,0,1-3.277-4.047,2.147,2.147,0,0,1,.68-2.291,1.072,1.072,0,0,1,1.836.3,4.94,4.94,0,0,0,.315.7,1.192,1.192,0,0,1-.215,1.784c-.127.108-.094.514.023.7a6.318,6.318,0,0,0,2.844,2.309A.846.846,0,0,0-105.9,87.4c.715-.858.506-.884,1.771-.347.183.078.364.16.547.239.977.421,1.123,1.281.237,1.886A7.115,7.115,0,0,1-104.812,89.809Z" transform="translate(116.992 -76.254)"/>
</svg>
