<svg id="Group_516" data-name="Group 516" xmlns="http://www.w3.org/2000/svg" width="18.608" height="18.608" viewBox="0 0 18.608 18.608">
  <path id="Path_113" data-name="Path 113" d="M4.361,7.378H2.925a6.4,6.4,0,0,1,12.38-1.747.727.727,0,0,0,1.363-.5A7.851,7.851,0,0,0,1.455,7.768,2.909,2.909,0,0,0,0,10.285v2.471a2.911,2.911,0,0,0,2.908,2.908H4.361a.727.727,0,0,0,.727-.727V8.1A.727.727,0,0,0,4.361,7.378ZM3.634,14.21H2.908a1.455,1.455,0,0,1-1.454-1.454V10.285A1.455,1.455,0,0,1,2.908,8.832h.727Z" transform="translate(0)"/>
  <path id="Path_114" data-name="Path 114" d="M223.85,203H222.4a.727.727,0,0,0-.727.727v7.6a.728.728,0,0,1-.727.727h-2.217v.023a1.454,1.454,0,1,0,0,1.408v.023h2.217a2.183,2.183,0,0,0,2.181-2.181v-.036h.727a2.911,2.911,0,0,0,2.908-2.908v-2.471A2.911,2.911,0,0,0,223.85,203Zm1.454,5.379a1.455,1.455,0,0,1-1.454,1.454h-.727v-5.379h.727a1.455,1.455,0,0,1,1.454,1.454Z" transform="translate(-208.15 -195.622)"/>
</svg>
